<svg xmlns="http://www.w3.org/2000/svg" viewBox="0 0 24 24">
    <path d="M10 4H4c-1.1 0-1.99.9-1.99 2L2 18c0 1.1.9 2 2 2h16c1.1 0 2-.9 2-2V8c0-1.1-.9-2-2-2h-8l-2-2z" fill="#BDC3C7"/>
    <path d="M15.5 10.5a2.121 2.121 0 00-3 0l-1.5 1.5a2.121 2.121 0 000 3" stroke="#FFFFFF" stroke-width="1.5" stroke-linecap="round" fill="none"/>
    <path d="M8.5 16.5a2.121 2.121 0 003 0l1.5-1.5a2.121 2.121 0 000-3" stroke="#FFFFFF" stroke-width="1.5" stroke-linecap="round" fill="none"/>
    <path d="M16 16l-8-8" stroke="#E74C3C" stroke-width="2" stroke-linecap="round"/>
</svg>
