<svg xmlns="http://www.w3.org/2000/svg" viewBox="0 0 24 24">
    <defs>
        <linearGradient id="folderGrad" x1="0%" y1="0%" x2="100%" y2="100%">
            <stop offset="0%" stop-color="#42A5F5"/>
            <stop offset="100%" stop-color="#1565C0"/>
        </linearGradient>
        <filter id="dropShadow" x="-50%" y="-50%" width="200%" height="200%">
            <feDropShadow dx="0" dy="1.5" stdDeviation="0.8" flood-color="#000000" flood-opacity="0.25"/>
        </filter>
    </defs>

    <g transform="scale(1.18) translate(-1.8, -1)">
        <path d="M10 4H4c-1.1 0-1.99.9-1.99 2L2 18c0 1.1.9 2 2 2h16c1.1 0 2-.9 2-2V8c0-1.1-.9-2-2-2h-8l-2-2z"
              fill="url(#folderGrad)"
              filter="url(#dropShadow)"
        />
    </g>

        <g filter="url(#dropShadow)" transform="scale(1) translate(0.5, -0)">
            <g fill="none" stroke="#FFFFFF" stroke-width="2" stroke-linecap="round" stroke-linejoin="round">
                <path d="M4.6 12.8a10.4 10.4 0 0 1 14.8 0"/>
                <path d="M7.4 15.6a6.4 6.4 0 0 1 9.2 0"/>
                <path d="M10.2 18.4a2.4 2.4 0 0 1 3.6 0"/>
                <line x1="21" y1="3" x2="3" y2="21"/>
            </g>
            <g fill="none" stroke="#000" stroke-width="1.2" stroke-linecap="round" stroke-linejoin="round">
                <path d="M4.6 12.8a10.4 10.4 0 0 1 14.8 0"/>
                <path d="M7.4 15.6a6.4 6.4 0 0 1 9.2 0"/>
                <path d="M10.2 18.4a2.4 2.4 0 0 1 3.6 0"/>
                <line x1="21" y1="3" x2="3" y2="21"/>
            </g>
        </g>
</svg>
