<svg xmlns="http://www.w3.org/2000/svg" viewBox="0 0 24 24">
    <defs>
        <linearGradient id="folderGrad" x1="0%" y1="0%" x2="100%" y2="100%">
            <stop offset="0%" stop-color="#42A5F5"/>
            <stop offset="100%" stop-color="#1565C0"/>
        </linearGradient>
        <filter id="dropShadow" x="-50%" y="-50%" width="200%" height="200%">
            <feDropShadow dx="0" dy="1.5" stdDeviation="0.8" flood-color="#000000" flood-opacity="0.25"/>
        </filter>
        <linearGradient id="powerFillGrad" x1="0" y1="21" x2="0" y2="6" gradientUnits="userSpaceOnUse">
            <stop offset="0%" stop-color="#2ECC71"/>
            <stop offset="0%" stop-color="#2C3E50"/>
        </linearGradient>
    </defs>

    <g transform="scale(1.18) translate(-1.8, -1)">
        <path d="M10 4H4c-1.1 0-1.99.9-1.99 2L2 18c0 1.1.9 2 2 2h16c1.1 0 2-.9 2-2V8c0-1.1-.9-2-2-2h-8l-2-2z"
              fill="url(#folderGrad)"
              filter="url(#dropShadow)"
        />
    </g>
    <g filter="url(#dropShadow)">
        <path d="M8.5 10 A 5.5 5.5 0 1 0 15.5 10" fill="none" stroke="url(#powerFillGrad)" stroke-width="2.2" stroke-linecap="round"/>
        <path d="M12 8 V 11.5" fill="none" stroke="url(#powerFillGrad)" stroke-width="2.4" stroke-linecap="round"/>
    </g>
</svg>
